{"title":"Under the Tuscan Sun 2003 720p.BluRay.5.1.x264 . NVEE","uid":12127886,"size":1513814185,"categoryP":"video","categoryS":"hd___movies","magnet":"?xt=urn:btih:980823ab6bfec89582db088e0bb040c7f43fc887&amp;dn=Under+the+Tuscan+Sun+2003+720p.BluRay.5.1.x264+.+NVEE&amp;tr=udp%3A%2F%2Ftracker.openbittorrent.com%3A80&amp;tr=udp%3A%2F%2Fopen.demonii.com%3A1337&amp;tr=udp%3A%2F%2Ftracker.coppersurfer.tk%3A6969&amp;tr=udp%3A%2F%2Fexodus.desync.com%3A6969","seeders":3,"leechers":1,"uploader":".NVEE","files":4,"time":1436972169,"description":"Quick note : \n\nTrackers refresh never most current &amp; so if, \nYou require a torrent release I have posted in the past, not seeding,... \nPlease do not hesitate to inform me in any means you find fit to do so. \nTorrent requests also &quot;Always Welcome.&quot; \n\n \nFULL_INFOs \n\n99.99% &gt;&gt;&gt; SYNCED GUARANTEED \n\n&quot;Totally scrutinized / analyzed to be a verified torrent.&quot; \n___________________________________________ \n\nSource : Blu-ray ~ 720p \n\n \n\nSpoken Language : English \n\nAudio : 6 ~ Channels Only \n\n \nSubs Info : \n\nx3 ~ English .srt \n\nAll .srt UTF-8 .idx &amp; .ass subs can be turned On/Off \n_____________________________________ \n--------------------------------------------------------------------------------- \n \nGeneral Metadata \n\nComplete name : Under the Tuscan Sun.2003.720p.BluRay.5.1.x264 . NVEE.mp4 \nFormat : MPEG-4 \nFormat profile : Base Media \nCodec ID : isom \nFile size : 1.41 GiB \nDuration : 1h 52mn \nOverall bit rate : 1 791 Kbps \nEncoded date : UTC 2015-07-13 06:51:07 \nTagged date : UTC 2015-07-13 06:51:07 \n\n \nVideo \n\nID : 1 \nFormat : AVC \nFormat/Info : Advanced Video Codec \nFormat profile : High@L4 \nFormat settings, CABAC : Yes \nFormat settings, ReFrames : 6 frames \nCodec ID : avc1 \nCodec ID/Info : Advanced Video Coding \nDuration : 1h 52mn \nBit rate : 1 149 Kbps \nMaximum bit rate : 8 538 Kbps \nWidth : 1 280 pixels \nHeight : 696 pixels \nDisplay aspect ratio : 1.85:1 \nFrame rate mode : Constant \nFrame rate : 23.976 fps \nColor space : YUV \nChroma subsampling : 4:2:0 \nBit depth : 8 bits \nScan type : Progressive \nBits/(Pixel*Frame) : 0.054 \nStream size : 925 MiB (64%) \nWriting library : x264 core 146 r2538 121396c \n\nEncoded from Physical Blu-ray / Region free \n\n \nAudio \n\nID : 2 \nFormat : AC-3 \nFormat/Info : Audio Coding 3 \nMode extension : CM (complete main) \nFormat settings, Endianness : Big \nCodec ID : ac-3 \nDuration : 1h 52mn \nBit rate mode : Constant \nBit rate : 640 Kbps \nMaximum bit rate : 676 Kbps \nChannel(s) : 6 channels \nChannel positions : Front: L C R, Side: L R, LFE \nSampling rate : 48.0 KHz \nBit depth : 16 bits \nCompression mode : Lossy \nStream size : 516 MiB (36%) \nLanguage : English \nEncoded date : UTC 2015-07-13 06:55:50 \nTagged date : UTC 2015-07-13 06:57:38 \n\nEncoded from Physical Blu-ray 6 Channel audio &quot;Only&quot;. \n\n\n \n\n \n\n \n\n\n\n\nEnj0y !","torrent":{"xt":"urn:btih:980823ab6bfec89582db088e0bb040c7f43fc887","amp;dn":"Under+the+Tuscan+Sun+2003+720p.BluRay.5.1.x264+.+NVEE","amp;tr":["udp%3A%2F%2Ftracker.openbittorrent.com%3A80","udp%3A%2F%2Fopen.demonii.com%3A1337","udp%3A%2F%2Ftracker.coppersurfer.tk%3A6969","udp%3A%2F%2Fexodus.desync.com%3A6969"],"infoHash":"980823ab6bfec89582db088e0bb040c7f43fc887","infoHashBuffer":{"type":"Buffer","data":[152,8,35,171,107,254,200,149,130,219,8,142,11,176,64,199,244,63,200,135]},"announce":[],"urlList":[]}}